<svg width="271" height="56" viewBox="0 0 271 56" fill="none" xmlns="http://www.w3.org/2000/svg">
<path d="M41.4281 0H32.0236L13.257 23.5007C12.3887 24.5862 11.9157 25.9348 11.9157 27.3248C11.9157 28.7149 12.3887 30.0635 13.257 31.149L32.0236 54.6532H41.4281L19.6093 27.3355L41.4281 0Z" fill="white"/>
<path d="M78.5718 37.65H47.8512C48.0956 44.2714 53.6512 49.4163 60.4319 49.4163C62.6513 49.4583 64.8459 48.9437 66.8153 47.9194C68.7847 46.8952 70.4661 45.3939 71.706 43.5526L77.0988 47.8831C72.9347 53.2758 67.2941 55.8111 60.4319 55.8111C48.6692 55.8111 40.0047 47.6352 40.0047 35.4653C40.0047 23.3697 48.6692 14.9566 60.0212 14.9566C71.4617 14.9566 78.6532 22.7182 78.6532 35.0546C78.6532 35.8548 78.6532 36.7506 78.5718 37.65ZM70.8881 31.9315C70.7252 25.8058 67.1312 20.9832 60.0212 20.9832C53.4068 20.9832 48.3363 25.8873 47.8512 31.9315H70.8881Z" fill="white"/>
<path d="M93.0999 54.7276H85.4233V0H93.0999V54.7276Z" fill="white"/>
<path d="M110.252 54.7276H102.575V0H110.252V54.7276Z" fill="white"/>
<path d="M155.596 37.65H124.876C125.124 44.2714 130.679 49.4163 137.456 49.4163C139.676 49.4583 141.871 48.9437 143.841 47.9194C145.811 46.8952 147.493 45.3939 148.734 43.5526L154.127 47.8831C149.959 53.2758 144.322 55.8111 137.456 55.8111C125.694 55.8111 117.029 47.6352 117.029 35.4653C117.029 23.3697 125.694 14.9566 137.049 14.9566C148.486 14.9566 155.681 22.7182 155.681 35.0546C155.681 35.8548 155.681 36.7506 155.596 37.65ZM147.916 31.9315C147.753 25.8058 144.159 20.9832 137.049 20.9832C130.435 20.9832 125.364 25.8873 124.876 31.9315H147.916Z" fill="white"/>
<path d="M170.287 21.8825C172.086 18.0584 176.987 14.9389 182.546 14.9389C192.513 14.9389 197.007 22.0454 197.007 30.7099V54.7276H189.326V33.3195C189.326 27.0274 187.691 21.4718 180.581 21.4718C174.536 21.4718 170.124 26.5388 170.124 34.2189V54.724H162.444V0H170.124V21.8825H170.287Z" fill="white"/>
<path d="M241.933 37.65H211.213C211.457 44.2714 217.012 49.4163 223.793 49.4163C226.013 49.4586 228.207 48.9442 230.177 47.9199C232.146 46.8956 233.828 45.3941 235.067 43.5526L240.46 47.8831C236.296 53.2758 230.655 55.8111 223.793 55.8111C212.03 55.8111 203.366 47.6352 203.366 35.4653C203.366 23.3697 212.03 14.9566 223.382 14.9566C234.823 14.9566 242.014 22.7182 242.014 35.0546C242.014 35.8548 242.014 36.7506 241.933 37.65ZM234.249 31.9315C234.087 25.8058 230.493 20.9832 223.382 20.9832C216.768 20.9832 211.698 25.8873 211.213 31.9315H234.249Z" fill="white"/>
<path d="M248.289 15.9976H255.558C255.721 17.9593 255.888 20.9017 255.888 22.5341H256.132C257.182 20.2737 258.853 18.359 260.952 17.0139C263.05 15.6689 265.487 14.9491 267.98 14.9389C268.996 14.9164 270.012 15.0271 271 15.2682L270.678 22.3712C269.526 22.0973 268.346 21.9571 267.162 21.9534C259.811 21.9534 256.295 27.9162 256.295 34.3747V54.717H248.618V24.3364C248.618 22.3074 248.537 18.5329 248.289 15.9976Z" fill="white"/>
<path d="M7.67659 54.6639H0V0H7.67659V54.6639Z" fill="white"/>
</svg>
